PathFileType	4	(X/Y/Z)	c:/Users/goper/Files/vsCode/490R/osim_files/C08/C08_Slow_03.trc
DataRate	CameraRate	NumFrames	NumMarkers	Units                	OrigDataRate	OrigDataStartFrame	OrigNumFrames
250.00	250.00	4	36	mm	250.0	1082	2885
                Frame#	Time	LPSIS			LASIS			LTH1			LTH2			LTH3			LTH4			LLFE			LMFE			LSH1			LSH2			LSH3			LSH4			LLMAL			LMMAL			LCAL			LMTP5			LTOE			LMTP1			RPSIS			RASIS			RTH1			RTH2			RTH3			RTH4			RLFE			RMFE			RSH1			RSH2			RSH3			RSH4			RLMAL			RMMAL			RCAL			RMTP1			RTOE			RMTP5		
		X1	Y1	Z1	X2	Y2	Z2	X3	Y3	Z3	X4	Y4	Z4	X5	Y5	Z5	X6	Y6	Z6	X7	Y7	Z7	X8	Y8	Z8	X9	Y9	Z9	X10	Y10	Z10	X11	Y11	Z11	X12	Y12	Z12	X13	Y13	Z13	X14	Y14	Z14	X15	Y15	Z15	X16	Y16	Z16	X17	Y17	Z17	X18	Y18	Z18	X19	Y19	Z19	X20	Y20	Z20	X21	Y21	Z21	X22	Y22	Z22	X23	Y23	Z23	X24	Y24	Z24	X25	Y25	Z25	X26	Y26	Z26	X27	Y27	Z27	X28	Y28	Z28	X29	Y29	Z29	X30	Y30	Z30	X31	Y31	Z31	X32	Y32	Z32	X33	Y33	Z33	X34	Y34	Z34	X35	Y35	Z35	X36	Y36	Z36

1082	4.32400	1595.50183	1047.23706	248.29129	1405.43091	1009.34418	93.73796	1518.13831	734.77429	397.91205	1531.60327	658.55310	374.27979	1547.48657	589.27979	366.65591	0.00000	0.00000	0.00000	0.00000	0.00000	0.00000	1561.35010	532.80780	226.75977	1637.84314	423.47821	365.20370	1643.17114	377.40442	364.12158	1577.87561	415.38638	362.60477	0.00000	0.00000	0.00000	1694.49463	109.28603	303.01431	1673.25012	117.39098	212.69566	1761.34790	86.45836	246.37407	1583.12085	48.99192	331.23798	1518.91162	63.73774	270.49326	0.00000	0.00000	0.00000	1596.35620	1042.68262	188.38031	1392.35437	1003.01239	332.01242	1403.47742	746.57489	25.03509	1376.74658	672.44543	38.34956	1351.72937	597.11584	46.90297	1306.92810	699.58026	64.37829	1317.09497	539.66571	62.52005	0.00000	0.00000	0.00000	1342.23975	447.71164	43.43627	1322.81934	407.33972	35.76173	1285.27454	467.58545	49.96975	1271.94385	423.77060	44.08411	1223.77563	116.47630	79.25185	1197.52087	128.51103	166.96941	1272.91431	74.00866	148.37146	1060.10327	108.80690	152.77623	1052.89258	133.97385	98.77152	1091.60608	94.15617	40.12196
1083	4.32800	1591.17151	1046.59729	247.75308	1401.42883	1008.87067	93.57631	1515.00500	734.47852	397.74716	1528.61340	658.27240	374.01309	1544.03577	588.66010	365.90909	0.00000	0.00000	0.00000	1549.03796	532.62952	350.87256	1558.74133	532.61633	226.51221	1636.00232	423.78287	364.95886	1641.57300	377.71500	363.87326	1576.20312	415.71933	362.24283	0.00000	0.00000	0.00000	1694.15405	109.72977	302.91660	1671.83130	117.36292	212.87910	1761.05811	87.00668	246.24713	1583.07874	49.00581	331.23297	1518.75891	63.58907	270.46994	0.00000	0.00000	0.00000	1591.71899	1041.92664	187.82426	1388.47351	1002.58612	331.80692	1399.84717	745.96594	24.53329	1373.19568	671.93048	37.70405	1348.36389	596.46179	46.44214	1303.32202	698.78943	64.04050	1313.55603	538.76276	62.82602	0.00000	0.00000	0.00000	1338.33081	446.76184	43.14054	1318.22620	406.43646	35.75192	1281.52576	467.21185	49.62896	1267.79846	423.45633	43.76133	1216.04895	116.73274	79.16970	1190.27441	129.49026	166.95399	1264.64539	73.59585	148.36649	1052.28918	110.96309	152.93301	1045.33679	136.13191	98.90098	1083.47949	95.60928	40.24926
1084	4.33200	1587.74719	1046.11072	247.32773	1398.25012	1008.78442	93.38169	1511.78589	734.11890	397.57254	1525.60803	657.95624	373.74899	1542.06238	588.86249	366.10663	0.00000	0.00000	0.00000	1546.31506	532.45197	350.48315	1555.74866	532.21497	225.84019	1634.03760	424.03494	364.70572	1639.88220	378.00912	363.59265	1574.27563	415.17654	361.86624	0.00000	0.00000	0.00000	1693.74121	110.20803	302.79706	1672.37903	117.94302	212.46664	1760.76172	87.65907	246.16898	1583.02197	48.99070	331.23242	1524.73267	61.92447	269.92395	0.00000	0.00000	0.00000	1587.72852	1041.28113	187.34766	1384.73071	1002.10315	331.70020	1396.16760	745.40845	24.10656	1369.39001	671.34662	37.12108	1344.84937	595.89929	46.04851	1299.56689	698.07617	63.72152	1309.90393	537.98175	62.11366	0.00000	0.00000	0.00000	1334.41187	445.86636	42.89980	1314.06799	405.71255	35.43528	1277.81323	466.76950	49.30778	1263.66687	423.07343	43.51208	1208.68164	116.79562	79.17566	1183.25049	129.97104	166.82300	1257.19458	73.51884	148.35793	1045.05835	113.05024	153.13289	1038.30481	138.05019	98.98972	1075.88586	96.89062	40.41032
1085	4.33600	1583.21069	1045.38025	246.77869	1393.89246	1008.35956	93.08275	1508.59961	733.81567	397.34332	1522.59534	657.71429	373.49194	1539.19666	588.61322	365.80942	0.00000	0.00000	0.00000	1543.83154	532.35968	350.30713	1553.17041	532.18048	226.07521	1631.99670	424.25214	364.44354	1636.58325	377.26709	362.71686	1572.21191	415.58902	361.80325	0.00000	0.00000	0.00000	1693.40173	111.00583	302.50256	1670.17310	118.31451	213.32736	1760.46130	88.33451	246.10205	1582.93396	48.97425	331.20749	1518.48267	63.27521	270.46381	0.00000	0.00000	0.00000	1583.69568	1040.61304	186.86296	1380.67029	1001.75165	331.45135	1392.43970	744.94366	23.67020	1365.45093	670.86334	36.61777	1341.10583	595.39069	45.73606	1295.52014	697.34027	63.45516	1306.85083	537.62323	61.87905	0.00000	0.00000	0.00000	1329.93042	444.50635	43.13776	1310.20520	405.13126	34.94976	1273.96301	466.29492	48.95360	1259.61023	422.69656	43.17947	1201.91748	116.82122	79.23402	1176.59753	130.50377	166.81020	1250.04126	73.21027	148.39716	1038.28760	114.93695	153.22116	1031.85583	139.81802	98.96416	1068.85645	97.94756	40.52481
